<svg width="64" height="64" viewBox="0 0 64 64" fill="none" xmlns="http://www.w3.org/2000/svg">
<rect width="64" height="64" rx="11" fill="#D44295"/>
<path d="M49.6382 20L45.3632 16.7498C45.0727 16.5657 44.7569 16.424 44.4254 16.3288C44.0953 16.2234 43.7516 16.1648 43.4048 16.1548H31.1L32.5418 25.0353H43.4048C43.7 25.0353 44.069 24.9696 44.4236 24.8612C44.7782 24.7529 45.1202 24.6037 45.3614 24.4421L49.6364 21.1883C49.8794 21.0266 50 20.8117 50 20.595C50 20.3783 49.8794 20.1634 49.6382 20ZM29.3 12.6025H27.5C27.2613 12.6025 27.0324 12.6961 26.8636 12.8626C26.6948 13.0292 26.6 13.2551 26.6 13.4906V19.707H20.5952C20.2964 19.707 19.9292 19.7727 19.5746 19.8828C19.2182 19.9894 18.878 20.1368 18.6368 20.302L14.3618 23.5523C14.1188 23.7139 14 23.9306 14 24.1473C14 24.3622 14.1188 24.5771 14.3618 24.7422L18.6368 27.9961C18.878 28.1577 19.2182 28.3069 19.5746 28.4135C19.9292 28.5218 20.2964 28.5875 20.5952 28.5875H26.6V43.6845C26.6 43.92 26.6948 44.1459 26.8636 44.3124C27.0324 44.4789 27.2613 44.5725 27.5 44.5725H29.3C29.5387 44.5725 29.7676 44.4789 29.9364 44.3124C30.1052 44.1459 30.2 43.92 30.2 43.6845V13.4906C30.2 13.2551 30.1052 13.0292 29.9364 12.8626C29.7676 12.6961 29.5387 12.6025 29.3 12.6025Z" fill="white"/>
</svg>
