<svg width="64" height="64" viewBox="0 0 64 64" fill="none" xmlns="http://www.w3.org/2000/svg">
<rect width="64" height="64" rx="11" fill="#D44295"/>
<path d="M15 37.8725V40.6221C15 42.8951 20.543 44.7432 27.375 44.7432C34.207 44.7432 39.75 42.8951 39.75 40.6221V37.8725C37.0881 39.7463 32.2219 40.6221 27.375 40.6221C22.5281 40.6221 17.6619 39.7463 15 37.8725ZM35.625 20.0166C42.457 20.0166 48 18.1685 48 15.8955C48 13.6225 42.457 11.7744 35.625 11.7744C28.793 11.7744 23.25 13.6225 23.25 15.8955C23.25 18.1685 28.793 20.0166 35.625 20.0166ZM15 31.1178V34.4404C15 36.7135 20.543 38.5615 27.375 38.5615C34.207 38.5615 39.75 36.7135 39.75 34.4404V31.1178C37.0881 33.3071 32.2154 34.4404 27.375 34.4404C22.5346 34.4404 17.6619 33.3071 15 31.1178ZM41.8125 31.8261C45.5057 31.1114 48 29.7849 48 28.2588V25.5092C46.5047 26.5653 44.3068 27.2865 41.8125 27.7308V31.8261ZM27.375 22.0771C20.543 22.0771 15 24.3824 15 27.2285C15 30.0746 20.543 32.3799 27.375 32.3799C34.207 32.3799 39.75 30.0746 39.75 27.2285C39.75 24.3824 34.207 22.0771 27.375 22.0771ZM41.5096 25.7024C45.3768 25.007 48 23.6419 48 22.0771V19.3276C45.7119 20.9438 41.7803 21.8131 37.6424 22.0192C39.5437 22.94 40.9424 24.1763 41.5096 25.7024Z" fill="white"/>
</svg>
