<svg width="64" height="64" viewBox="0 0 64 64" fill="none" xmlns="http://www.w3.org/2000/svg">
<rect width="64" height="64" rx="11" fill="#D44295"/>
<path d="M50.0361 17.5742H14.6361C13.5501 17.5742 12.6694 18.4441 12.6694 19.5168V38.9427C12.6694 40.0153 13.5501 40.8853 14.6361 40.8853H50.0361C51.1221 40.8853 52.0028 40.0153 52.0028 38.9427V19.5168C52.0028 18.4441 51.1221 17.5742 50.0361 17.5742ZM15.6194 37.9714V34.0862C17.792 34.0862 19.5528 35.8254 19.5528 37.9714H15.6194ZM15.6194 24.3733V20.4881H19.5528C19.5528 22.634 17.792 24.3733 15.6194 24.3733ZM32.3361 35.0575C29.6203 35.0575 27.4194 32.4478 27.4194 29.2297C27.4194 26.0111 29.6209 23.402 32.3361 23.402C35.0514 23.402 37.2528 26.0111 37.2528 29.2297C37.2528 32.449 35.0507 35.0575 32.3361 35.0575ZM49.0528 37.9714H45.1195C45.1195 35.8254 46.8802 34.0862 49.0528 34.0862V37.9714ZM49.0528 24.3733C46.8802 24.3733 45.1195 22.634 45.1195 20.4881H49.0528V24.3733Z" fill="white"/>
</svg>
