<svg width="64" height="64" viewBox="0 0 64 64" fill="none" xmlns="http://www.w3.org/2000/svg">
<rect width="64" height="64" rx="11" fill="#D44295"/>
<path d="M22.0527 19.0549C20.9508 19.0549 19.8737 18.7285 18.9575 18.1169C18.0413 17.5053 17.3272 16.636 16.9055 15.6189C16.4839 14.6019 16.3735 13.4827 16.5885 12.403C16.8035 11.3233 17.3341 10.3315 18.1132 9.55311C18.8924 8.77468 19.8851 8.24457 20.9658 8.0298C22.0466 7.81504 23.1668 7.92526 24.1848 8.34654C25.2028 8.76782 26.0729 9.48124 26.6851 10.3966C27.2973 11.3119 27.624 12.388 27.624 13.4889C27.624 14.9651 27.0371 16.3808 25.9922 17.4247C24.9474 18.4685 23.5303 19.0549 22.0527 19.0549ZM22.0527 10.7059C21.5018 10.7059 20.9632 10.8691 20.5051 11.1749C20.047 11.4807 19.69 11.9153 19.4791 12.4239C19.2683 12.9324 19.2131 13.492 19.3206 14.0318C19.4281 14.5717 19.6934 15.0676 20.083 15.4568C20.4726 15.846 20.9689 16.1111 21.5093 16.2184C22.0496 16.3258 22.6097 16.2707 23.1188 16.0601C23.6278 15.8494 24.0628 15.4927 24.3689 15.0351C24.675 14.5774 24.8384 14.0393 24.8384 13.4889C24.8384 12.7508 24.5449 12.0429 24.0225 11.521C23.5001 10.9991 22.7915 10.7059 22.0527 10.7059Z" fill="white"/>
<path d="M43.6416 19.0549C42.5397 19.0549 41.4626 18.7285 40.5464 18.1169C39.6302 17.5053 38.9161 16.636 38.4944 15.6189C38.0727 14.6019 37.9624 13.4827 38.1774 12.403C38.3923 11.3233 38.923 10.3315 39.7021 9.55311C40.4813 8.77468 41.474 8.24457 42.5547 8.0298C43.6354 7.81504 44.7556 7.92526 45.7736 8.34654C46.7917 8.76782 47.6618 9.48124 48.274 10.3966C48.8861 11.3119 49.2129 12.388 49.2129 13.4889C49.2129 14.9651 48.6259 16.3808 47.5811 17.4247C46.5363 18.4685 45.1192 19.0549 43.6416 19.0549ZM43.6416 10.7059C43.0907 10.7059 42.5521 10.8691 42.094 11.1749C41.6359 11.4807 41.2788 11.9153 41.068 12.4239C40.8572 12.9324 40.802 13.492 40.9095 14.0318C41.017 14.5717 41.2823 15.0676 41.6719 15.4568C42.0614 15.846 42.5578 16.1111 43.0982 16.2184C43.6385 16.3258 44.1986 16.2707 44.7076 16.0601C45.2166 15.8494 45.6517 15.4927 45.9578 15.0351C46.2639 14.5774 46.4272 14.0393 46.4272 13.4889C46.4272 12.7508 46.1338 12.0429 45.6114 11.521C45.0889 10.9991 44.3804 10.7059 43.6416 10.7059Z" fill="white"/>
<path d="M46.4277 48.9724H40.8564C40.1176 48.9724 39.4091 48.6792 38.8867 48.1573C38.3643 47.6354 38.0708 46.9275 38.0708 46.1894V36.449H40.8564V46.1894H46.4277V33.666H49.2134V25.3171C49.2134 24.948 49.0666 24.5941 48.8054 24.3331C48.5442 24.0722 48.19 23.9256 47.8206 23.9256H38.8786L32.4995 35.0575L26.1204 23.9256H17.1785C16.8091 23.9256 16.4548 24.0722 16.1936 24.3331C15.9324 24.5941 15.7856 24.948 15.7856 25.3171V33.666H18.5713V46.1894H24.1426V36.449H26.9282V46.1894C26.9282 46.9275 26.6347 47.6354 26.1123 48.1573C25.5899 48.6792 24.8814 48.9724 24.1426 48.9724H18.5713C17.8325 48.9724 17.124 48.6792 16.6015 48.1573C16.0791 47.6354 15.7856 46.9275 15.7856 46.1894V36.449C15.0468 36.449 14.3383 36.1558 13.8159 35.6339C13.2935 35.112 13 34.4041 13 33.666V25.3171C13 24.2099 13.4402 23.1481 14.2238 22.3653C15.0075 21.5824 16.0703 21.1426 17.1785 21.1426H27.7361L32.4995 29.4915L37.263 21.1426H47.8206C48.9288 21.1426 49.9916 21.5824 50.7752 22.3653C51.5588 23.1481 51.999 24.2099 51.999 25.3171V33.666C51.999 34.4041 51.7055 35.112 51.1831 35.6339C50.6607 36.1558 49.9522 36.449 49.2134 36.449V46.1894C49.2134 46.9275 48.9199 47.6354 48.3975 48.1573C47.8751 48.6792 47.1665 48.9724 46.4277 48.9724Z" fill="white"/>
</svg>
