<svg width="64" height="64" viewBox="0 0 64 64" fill="none" xmlns="http://www.w3.org/2000/svg">
<rect width="64" height="64" rx="11" fill="#D44295"/>
<path d="M46.4281 19.6241H19.625C19.0034 19.6241 18.5 19.1131 18.5 18.4823C18.5 17.8515 19.0034 17.3405 19.625 17.3405H46.625C47.2466 17.3405 47.75 16.8296 47.75 16.1988C47.75 14.307 46.239 12.7734 44.375 12.7734H18.5C16.0145 12.7734 14 14.8179 14 17.3405V40.1761C14 42.6987 16.0145 44.7432 18.5 44.7432H46.4281C48.3983 44.7432 50 43.2068 50 41.3178V23.0494C50 21.1605 48.3983 19.6241 46.4281 19.6241ZM43.25 34.4672C42.0076 34.4672 41 33.4446 41 32.1836C41 30.9227 42.0076 29.9001 43.25 29.9001C44.4924 29.9001 45.5 30.9227 45.5 32.1836C45.5 33.4446 44.4924 34.4672 43.25 34.4672Z" fill="white"/>
</svg>
